<svg width="34" height="34" viewBox="0 0 34 34" fill="none" xmlns="http://www.w3.org/2000/svg">
<path d="M26.0312 0H7.96875C3.56773 0 0 3.56773 0 7.96875V26.0312C0 30.4323 3.56773 34 7.96875 34H26.0312C30.4323 34 34 30.4323 34 26.0312V7.96875C34 3.56773 30.4323 0 26.0312 0Z" fill="url(#paint0_linear_227_3)"/>
<path fill-rule="evenodd" clip-rule="evenodd" d="M20.9471 4.38427C21.1641 4.65362 21.2746 5.01713 21.4958 5.74388L26.3297 21.6231C24.514 20.6809 22.5652 20.0211 20.5506 19.6665L17.4034 9.03085C17.3846 8.96749 17.3507 8.9096 17.3048 8.86213C17.2588 8.81467 17.202 8.77902 17.1393 8.75824C17.0765 8.73746 17.0097 8.73216 16.9445 8.74278C16.8792 8.75341 16.8175 8.77966 16.7647 8.81928C16.6939 8.87241 16.6422 8.94705 16.6174 9.03205L13.5081 19.6612C11.4844 20.0142 9.52674 20.675 7.70312 21.6207L12.5605 5.74029C12.7827 5.0146 12.8934 4.65189 13.1105 4.38308C13.302 4.14568 13.5511 3.96131 13.8341 3.84758C14.1548 3.71875 14.5341 3.71875 15.293 3.71875H18.7624C19.5222 3.71875 19.9021 3.71875 20.223 3.84784C20.5062 3.96187 20.7555 4.14647 20.9471 4.38427Z" fill="#31274A"/>
<path fill-rule="evenodd" clip-rule="evenodd" d="M21.5255 22.3788C20.7287 23.0603 19.1381 23.5249 17.3061 23.5249C15.0574 23.5249 13.1727 22.8248 12.6727 21.8834C12.4939 22.423 12.4538 23.0405 12.4538 23.4351C12.4538 23.4351 12.336 25.3721 13.6832 26.7194C13.6833 26.3834 13.8168 26.0613 14.0543 25.8237C14.2919 25.5862 14.614 25.4527 14.95 25.4526C16.149 25.4526 16.1477 26.4988 16.1465 27.3476V27.4233C16.1465 28.7116 16.9338 29.8159 18.0536 30.2813C17.8812 29.9266 17.7919 29.5372 17.7924 29.1428C17.7924 27.9142 18.5139 27.4566 19.3522 26.9251C20.0192 26.5021 20.7603 26.0321 21.2711 25.0891C21.5461 24.5813 21.6897 24.0126 21.6888 23.4351C21.6888 23.0668 21.6315 22.7119 21.5255 22.3788Z" fill="#FF5D01"/>
<path fill-rule="evenodd" clip-rule="evenodd" d="M21.5255 22.3788C20.7287 23.0603 19.1381 23.5249 17.3061 23.5249C15.0574 23.5249 13.1727 22.8248 12.6727 21.8834C12.4939 22.423 12.4538 23.0405 12.4538 23.4351C12.4538 23.4351 12.336 25.3721 13.6832 26.7194C13.6833 26.3834 13.8168 26.0613 14.0543 25.8237C14.2919 25.5862 14.614 25.4527 14.95 25.4526C16.149 25.4526 16.1477 26.4988 16.1465 27.3476V27.4233C16.1465 28.7116 16.9338 29.8159 18.0536 30.2813C17.8812 29.9266 17.7919 29.5372 17.7924 29.1428C17.7924 27.9142 18.5139 27.4566 19.3522 26.9251C20.0192 26.5021 20.7603 26.0321 21.2711 25.0891C21.5461 24.5813 21.6897 24.0126 21.6888 23.4351C21.6888 23.0668 21.6315 22.7119 21.5255 22.3788Z" fill="url(#paint1_linear_227_3)"/>
<defs>
<linearGradient id="paint0_linear_227_3" x1="17" y1="0" x2="17" y2="34" gradientUnits="userSpaceOnUse">
<stop offset="0.193" stop-color="#FCB3B2"/>
<stop offset="1" stop-color="#C587EE"/>
</linearGradient>
<linearGradient id="paint1_linear_227_3" x1="25.1135" y1="16.836" x2="20.3954" y2="26.7129" gradientUnits="userSpaceOnUse">
<stop stop-color="#FF1639"/>
<stop offset="1" stop-color="#FF1639" stop-opacity="0"/>
</linearGradient>
</defs>
</svg>
