<svg width="28" height="30" viewBox="0 0 28 30" fill="none" xmlns="http://www.w3.org/2000/svg">
<path d="M3.27074 26.9011L0.883301 0.125H27.1164L24.7258 26.8968L13.9839 29.875L3.27074 26.9011Z" fill="#E44F26"/>
<path d="M14 27.5991L22.6806 25.1926L24.7227 2.31482H14V27.5991Z" fill="#F1662A"/>
<path d="M14 12.2449H9.65437L9.35475 8.88209H14V5.5979H5.76562L5.84425 6.47978L6.65069 15.5291H14V12.2449ZM14 20.7736L13.9851 20.7778L10.328 19.7908L10.0943 17.1717H6.79731L7.25738 22.327L13.9851 24.1948L14 24.1906V20.7736Z" fill="#EBEBEB"/>
<path d="M13.9883 12.2449V15.5291H18.0322L17.6518 19.7887L13.9883 20.7768V24.1938L20.7213 22.327L20.7702 21.7723L21.5416 13.1268L21.6223 12.2449H13.9883ZM13.9883 5.5979V8.88209H21.9209L21.9868 8.14471L22.1366 6.47978L22.2152 5.5979H13.9883Z" fill="white"/>
</svg>
