<svg width="34" height="34" viewBox="0 0 34 34" fill="none" xmlns="http://www.w3.org/2000/svg">
<path d="M9.00008 0H24.9999C27.3869 0 29.6761 0.94822 31.3639 2.63606C33.0518 4.32391 34 6.61311 34 9.00008V24.9999C34 27.3869 33.0518 29.6761 31.3639 31.3639C29.6761 33.0518 27.3869 34 24.9999 34H9.00008C6.61311 34 4.32391 33.0518 2.63606 31.3639C0.94822 29.6761 0 27.3869 0 24.9999L0 9.00008C0 6.61311 0.94822 4.32391 2.63606 2.63606C4.32391 0.94822 6.61311 0 9.00008 0ZM19.9863 9.79342H18.6646V19.2879C18.676 20.0057 18.4992 20.7139 18.1517 21.3421C17.8117 21.9427 17.3074 22.4329 16.6997 22.7588C16.0726 23.1044 15.3392 23.2768 14.4996 23.2758C13.6609 23.2758 12.929 23.1039 12.3038 22.7602C11.6972 22.433 11.1946 21.9421 10.8531 21.3435C10.5023 20.7165 10.3238 20.0077 10.336 19.2893V9.792H9.01425V19.3786C8.99853 20.3048 9.23821 21.2174 9.707 22.0164C10.1703 22.7913 10.8375 23.4246 11.6365 23.8467C12.461 24.2944 13.4154 24.5182 14.4996 24.5182C15.5895 24.5182 16.5452 24.2958 17.3669 23.851C18.1652 23.429 18.8318 22.7952 19.2936 22.0192C19.7611 21.2188 20.0019 20.3051 19.9877 19.3786L19.9863 9.79342ZM25.1543 24.2717V9.79483H23.8326V24.2732H25.1543V24.2717Z" fill="black"/>
</svg>
