<svg width="35" height="35" viewBox="0 0 35 35" fill="none" xmlns="http://www.w3.org/2000/svg">
<path d="M26.1475 0.125H8.08496C3.68394 0.125 0.116211 3.69273 0.116211 8.09375V26.1562C0.116211 30.5573 3.68394 34.125 8.08496 34.125H26.1475C30.5485 34.125 34.1162 30.5573 34.1162 26.1562V8.09375C34.1162 3.69273 30.5485 0.125 26.1475 0.125Z" fill="#242938"/>
<path fill-rule="evenodd" clip-rule="evenodd" d="M11.1396 14.7344C11.9365 11.5469 13.9287 9.95312 17.1162 9.95312C21.8975 9.95312 22.4951 13.5391 24.8857 14.1367C26.4795 14.5353 27.874 13.9377 29.0693 12.3438C28.2725 15.5312 26.2803 17.125 23.0928 17.125C18.3115 17.125 17.7139 13.5391 15.3232 12.9414C13.7295 12.543 12.335 13.1406 11.1396 14.7344ZM5.16309 21.9062C5.95996 18.7188 7.95215 17.125 11.1396 17.125C15.9209 17.125 16.5186 20.7109 18.9092 21.3086C20.5029 21.7072 21.8975 21.1096 23.0928 19.5156C22.2959 22.7031 20.3037 24.2969 17.1162 24.2969C12.335 24.2969 11.7373 20.7109 9.34668 20.1133C7.75293 19.7147 6.3584 20.3123 5.16309 21.9062Z" fill="url(#paint0_linear_227_17)"/>
<defs>
<linearGradient id="paint0_linear_227_17" x1="11.6045" y1="9.95312" x2="21.8311" y2="24.7617" gradientUnits="userSpaceOnUse">
<stop stop-color="#32B1C1"/>
<stop offset="1" stop-color="#14C6B7"/>
</linearGradient>
</defs>
</svg>
